<?xml version="1.0" encoding="UTF-8"?>
<svg
  xmlns="http://www.w3.org/2000/svg"
  xml:space="preserve"
  version="1.1"
  style="shape-rendering:geometricPrecision; text-rendering:geometricPrecision; image-rendering:optimizeQuality; fill-rule:evenodd; clip-rule:evenodd"
  viewBox="0 0 540 160"
>
  <g id="pmomp-logo">
     <g id="pmomp_o">
       <path fill="#1677FF" d="M269.98 6.5c27.7,0 50.27,21.89 51.39,49.3 -9.63,-18.56 -29.03,-31.24 -51.39,-31.24 -22.36,0 -41.75,12.68 -51.39,31.24 1.12,-27.41 23.7,-49.3 51.39,-49.3z"/>
       <path fill="#f5222d" d="M269.98 37.19c21.3,0 38.57,17.27 38.57,38.57 0,21.3 -17.27,38.57 -38.57,38.57 -21.3,0 -38.57,-17.27 -38.57,-38.57 0,-21.3 17.27,-38.57 38.57,-38.57zm0 14.47c13.32,0 24.11,10.79 24.11,24.1 0,13.32 -10.79,24.11 -24.11,24.11 -13.31,0 -24.1,-10.79 -24.1,-24.11 0,-13.31 10.79,-24.1 24.1,-24.1z"/>
       <path fill="#5b8c00" d="M269.98 139.53c-17.48,0 -31.73,-13.82 -32.44,-31.12 6.09,11.71 18.33,19.72 32.44,19.72 14.12,0 26.36,-8.01 32.44,-19.72 -0.7,17.3 -14.96,31.12 -32.44,31.12z"/>
     </g>
  </g>
</svg>