<?xml version="1.0" encoding="UTF-8"?>
<svg
  xmlns="http://www.w3.org/2000/svg"
  xml:space="preserve"
  version="1.1"
  style="shape-rendering:geometricPrecision; text-rendering:geometricPrecision; image-rendering:optimizeQuality; fill-rule:evenodd; clip-rule:evenodd"
  viewBox="0 0 540 160"
>
    <g id="pmomp_logo">
        <path fill="#1677FF" d="M16 30.05l14.77 0 0 8.64c6.74,-5.4 15.3,-8.64 24.61,-8.64 21.75,0 39.39,17.63 39.39,39.38 0,21.76 -17.64,39.39 -39.39,39.39 -9.31,0 -17.87,-3.24 -24.61,-8.64l0 48.02 -14.77 0 0 -78.75 0 -0.02 0 -0.01 0 -39.37zm39.38 14.77c13.6,0 24.62,11.02 24.62,24.61 0,13.6 -11.02,24.62 -24.62,24.62 -13.59,0 -24.61,-11.02 -24.61,-24.62 0,-13.59 11.02,-24.61 24.61,-24.61z"/>
        <path fill="#faad14" d="M104.99 30.05l14.77 0 0 3.95c4.34,-2.51 9.39,-3.95 14.77,-3.95 8.82,0 16.74,3.87 22.15,10 5.41,-6.13 13.33,-10 22.15,-10 16.31,0 29.54,13.23 29.54,29.54l0 0 -14.77 0 0 0c0,-8.16 -6.61,-14.77 -14.77,-14.77 -8.16,0 -14.77,6.61 -14.77,14.77l0 0 0 49.23 -14.77 0 0 -49.23 0 0c0,-8.16 -6.61,-14.77 -14.76,-14.77 -8.16,0 -14.77,6.61 -14.77,14.77l0 0 0 49.23 -14.77 0 0 -49.23 0 0 0 -29.54zm88.61 29.54l14.77 0 0 49.23 -14.77 0 0 -49.23z"/>

        <g id="pmomp_o">
            <path fill="#1677FF" d="M269.98 6.5c27.7,0 50.27,21.89 51.39,49.3 -9.63,-18.56 -29.03,-31.24 -51.39,-31.24 -22.36,0 -41.75,12.68 -51.39,31.24 1.12,-27.41 23.7,-49.3 51.39,-49.3z"/>
            <path fill="#f5222d" d="M269.98 37.19c21.3,0 38.57,17.27 38.57,38.57 0,21.3 -17.27,38.57 -38.57,38.57 -21.3,0 -38.57,-17.27 -38.57,-38.57 0,-21.3 17.27,-38.57 38.57,-38.57zm0 14.47c13.32,0 24.11,10.79 24.11,24.1 0,13.32 -10.79,24.11 -24.11,24.11 -13.31,0 -24.1,-10.79 -24.1,-24.11 0,-13.31 10.79,-24.1 24.1,-24.1z"/>
            <path fill="#5b8c00" d="M269.98 139.53c-17.48,0 -31.73,-13.82 -32.44,-31.12 6.09,11.71 18.33,19.72 32.44,19.72 14.12,0 26.36,-8.01 32.44,-19.72 -0.7,17.3 -14.96,31.12 -32.44,31.12z"/>
        </g>

        <path fill="#faad14" d="M331.6 30.05l14.77 0 0 3.95c4.34,-2.51 9.38,-3.95 14.76,-3.95 8.83,0 16.74,3.87 22.16,10 5.41,-6.13 13.33,-10 22.15,-10 16.31,0 29.54,13.23 29.54,29.54l0 0 -14.77 0 0 0c0,-8.16 -6.61,-14.77 -14.77,-14.77 -8.16,0 -14.77,6.61 -14.77,14.77l0 0 0 49.23 -14.77 0 0 -49.23 0 0c0,-8.16 -6.61,-14.77 -14.77,-14.77 -8.15,0 -14.76,6.61 -14.76,14.77l0 0 0 49.23 -14.77 0 0 -49.23 0 0 0 -29.54zm88.61 29.54l14.77 0 0 49.23 -14.77 0 0 -49.23z"/>
        <path fill="#1677FF" d="M445.2 30.05l14.77 0 0 8.64c6.74,-5.4 15.3,-8.64 24.61,-8.64 21.75,0 39.39,17.63 39.39,39.38 0,21.76 -17.64,39.39 -39.39,39.39 -9.31,0 -17.87,-3.24 -24.61,-8.64l0 48.02 -14.77 0 0 -78.75 0 -0.02 0 -0.01 0 -39.37zm39.38 14.77c13.6,0 24.62,11.02 24.62,24.61 0,13.6 -11.02,24.62 -24.62,24.62 -13.59,0 -24.61,-11.02 -24.61,-24.62 0,-13.59 11.02,-24.61 24.61,-24.61z"/>
    </g>
</svg>
